<svg width="151" height="32" viewBox="0 0 151 32" fill="none" xmlns="http://www.w3.org/2000/svg">
<g id="Group 3">
<path id="Vector" d="M150.208 14.4757V11.8396H146.935V7.74146L146.825 7.77539L143.75 8.71615L143.689 8.73457V11.8398H138.836V10.1099C138.836 9.30442 139.016 8.68802 139.371 8.27694C139.724 7.8708 140.228 7.66432 140.871 7.66432C141.333 7.66432 141.812 7.77321 142.294 7.98796L142.414 8.0419V5.26571L142.357 5.24483C141.908 5.0833 141.297 5.00195 140.539 5.00195C139.584 5.00195 138.717 5.20974 137.96 5.62154C137.203 6.03393 136.608 6.62263 136.191 7.37112C135.775 8.11875 135.564 8.98223 135.564 9.93779V11.8396H133.284V14.4757H135.564V25.5812H138.836V14.4757H143.689V21.5331C143.689 24.4396 145.06 25.9125 147.764 25.9125C148.208 25.9125 148.676 25.8605 149.153 25.7585C149.639 25.6539 149.97 25.5493 150.165 25.4377L150.208 25.4121V22.7517L150.075 22.8397C149.898 22.958 149.677 23.0547 149.417 23.1266C149.157 23.1999 148.939 23.2365 148.771 23.2365C148.138 23.2365 147.669 23.0659 147.378 22.729C147.084 22.3892 146.935 21.7948 146.935 20.9634V14.4757H150.208ZM125.977 23.237C124.789 23.237 123.853 22.8432 123.193 22.0674C122.529 21.2877 122.193 20.1762 122.193 18.7638C122.193 17.3067 122.529 16.1663 123.193 15.3729C123.854 14.5846 124.781 14.1846 125.95 14.1846C127.085 14.1846 127.988 14.5667 128.635 15.3208C129.285 16.0789 129.615 17.2102 129.615 18.6842C129.615 20.1764 129.305 21.3227 128.693 22.0894C128.085 22.8504 127.172 23.237 125.977 23.237ZM126.122 11.5086C123.857 11.5086 122.057 12.1725 120.774 13.482C119.491 14.7917 118.841 16.6041 118.841 18.8693C118.841 21.0208 119.476 22.7514 120.728 24.0122C121.979 25.2734 123.683 25.9122 125.791 25.9122C127.988 25.9122 129.752 25.239 131.034 23.9114C132.317 22.5852 132.967 20.7899 132.967 18.5777C132.967 16.3925 132.357 14.649 131.154 13.3966C129.95 12.1437 128.257 11.5086 126.122 11.5086ZM113.565 11.5086C112.024 11.5086 110.749 11.9028 109.775 12.6802C108.795 13.4622 108.298 14.4878 108.298 15.7288C108.298 16.3739 108.405 16.947 108.616 17.433C108.829 17.9207 109.157 18.35 109.594 18.7103C110.028 19.0678 110.697 19.4422 111.583 19.8231C112.328 20.1298 112.884 20.3892 113.237 20.5936C113.582 20.794 113.827 20.9954 113.966 21.1916C114.1 21.3836 114.168 21.6463 114.168 21.9705C114.168 22.8938 113.477 23.343 112.054 23.343C111.527 23.343 110.925 23.2328 110.265 23.0156C109.611 22.8016 108.993 22.4884 108.433 22.0867L108.297 21.9892V25.1397L108.347 25.1629C108.81 25.3766 109.394 25.5569 110.082 25.6987C110.769 25.8406 111.393 25.9128 111.935 25.9128C113.607 25.9128 114.954 25.5167 115.937 24.7347C116.926 23.9473 117.427 22.8975 117.427 21.6136C117.427 20.6873 117.158 19.893 116.626 19.2524C116.098 18.617 115.181 18.0336 113.902 17.518C112.883 17.1091 112.23 16.7696 111.961 16.5091C111.702 16.2574 111.57 15.9014 111.57 15.4506C111.57 15.051 111.733 14.7308 112.066 14.4715C112.403 14.211 112.872 14.0784 113.459 14.0784C114.004 14.0784 114.562 14.1646 115.117 14.3333C115.671 14.5021 116.158 14.7282 116.565 15.0047L116.698 15.096V12.1076L116.647 12.0855C116.272 11.9247 115.778 11.7871 115.177 11.6755C114.579 11.5646 114.037 11.5086 113.565 11.5086ZM99.7672 23.237C98.5798 23.237 97.6431 22.8432 96.9834 22.0674C96.3193 21.2877 95.9834 20.1764 95.9834 18.7638C95.9834 17.3067 96.3197 16.1663 96.9841 15.3729C97.6438 14.5846 98.5711 14.1846 99.741 14.1846C100.875 14.1846 101.778 14.5667 102.426 15.3208C103.076 16.0789 103.406 17.2102 103.406 18.6842C103.406 20.1764 103.095 21.3227 102.483 22.0894C101.876 22.8504 100.962 23.237 99.7672 23.237ZM99.9131 11.5086C97.6466 11.5086 95.8467 12.1725 94.5642 13.482C93.2818 14.7917 92.6312 16.6041 92.6312 18.8693C92.6312 21.0217 93.2663 22.7514 94.5182 24.0122C95.7701 25.2734 97.4738 25.9122 99.5816 25.9122C101.778 25.9122 103.542 25.239 104.825 23.9114C106.107 22.5852 106.757 20.7899 106.757 18.5777C106.757 16.3925 106.147 14.649 104.944 13.3966C103.74 12.1437 102.047 11.5086 99.9131 11.5086ZM87.664 14.2194V11.8396H84.4316V25.5809H87.664V18.5517C87.664 17.3565 87.935 16.3745 88.4698 15.6328C88.9977 14.9 89.7013 14.5287 90.5603 14.5287C90.8514 14.5287 91.1782 14.5767 91.5322 14.6716C91.8825 14.766 92.1363 14.8685 92.2859 14.9764L92.4218 15.0749V11.8161L92.3694 11.7937C92.0684 11.6658 91.6425 11.6012 91.1037 11.6012C90.2914 11.6012 89.5645 11.8622 88.9419 12.3761C88.3954 12.8278 88.0004 13.4471 87.6984 14.2194H87.664ZM78.6431 11.5086C77.1601 11.5086 75.8374 11.8266 74.7124 12.4534C73.585 13.0817 72.7131 13.9787 72.1199 15.1192C71.5293 16.2571 71.2295 17.5861 71.2295 19.0683C71.2295 20.3667 71.5202 21.5582 72.0948 22.6083C72.6698 23.6601 73.4835 24.483 74.5136 25.0537C75.5422 25.6237 76.7311 25.9127 78.0474 25.9127C79.5835 25.9127 80.8951 25.6056 81.9466 24.9999L81.9891 24.9755V22.0142L81.8532 22.1134C81.3769 22.4604 80.8446 22.7373 80.2719 22.9368C79.7006 23.1362 79.1797 23.237 78.723 23.237C77.4546 23.237 76.4364 22.8401 75.6974 22.0577C74.9567 21.2742 74.5812 20.1741 74.5812 18.7898C74.5812 17.3968 74.9728 16.2684 75.7446 15.4358C76.5142 14.6057 77.5342 14.1846 78.7763 14.1846C79.8387 14.1846 80.874 14.5443 81.8535 15.2548L81.9891 15.3533V12.233L81.9453 12.2084C81.5767 12.002 81.074 11.8316 80.4499 11.7024C79.8284 11.5735 79.2206 11.5086 78.6431 11.5086ZM69.0033 11.8398H65.7709V25.5809H69.0033V11.8398ZM67.4201 5.98593C66.8881 5.98593 66.4241 6.16704 66.0429 6.52591C65.6601 6.88581 65.466 7.33893 65.466 7.8737C65.466 8.40005 65.6578 8.84491 66.037 9.19524C66.4137 9.54454 66.8791 9.72159 67.4203 9.72159C67.9613 9.72159 68.4285 9.54454 68.8097 9.19582C69.1934 8.84491 69.3879 8.4002 69.3879 7.8737C69.3879 7.35764 69.1986 6.90915 68.8255 6.54041C68.4527 6.1724 67.9797 5.98593 67.4201 5.98593ZM59.3552 10.8259V25.5809H62.654V6.40658H58.0883L52.2851 20.6487L46.6534 6.40658H41.9019V25.5808H45.0018V10.8245H45.1083L51.0552 25.5809H53.3946L59.2488 10.8259H59.3552Z" fill="#706D6E"/>
<path id="Vector_2" d="M15.5219 15.206H0.315918V0H15.5219V15.206Z" fill="#F1511B"/>
<path id="Vector_3" d="M32.3106 15.206H17.105V0H32.3106V15.206Z" fill="#80CC28"/>
<path id="Vector_4" d="M15.5214 32.0007H0.315918V16.7949H15.5214V32.0007Z" fill="#00ADEF"/>
<path id="Vector_5" d="M32.3106 32.0007H17.105V16.7949H32.3106V32.0007Z" fill="#FBBC09"/>
</g>
</svg>
