<svg width="16" height="17" viewBox="0 0 16 17" fill="none" xmlns="http://www.w3.org/2000/svg">
<g id="information-circle">
<path id="Icon" fill-rule="evenodd" clip-rule="evenodd" d="M7.99996 2.50002C4.68625 2.50002 1.99996 5.18631 1.99996 8.50002C1.99996 11.8137 4.68625 14.5 7.99996 14.5C11.3137 14.5 14 11.8137 14 8.50002C14 5.18631 11.3137 2.50002 7.99996 2.50002ZM0.666626 8.50002C0.666626 4.44993 3.94987 1.16669 7.99996 1.16669C12.05 1.16669 15.3333 4.44993 15.3333 8.50002C15.3333 12.5501 12.05 15.8334 7.99996 15.8334C3.94987 15.8334 0.666626 12.5501 0.666626 8.50002ZM7.33329 5.16669C7.33329 4.7985 7.63177 4.50002 7.99996 4.50002H8.00663C8.37482 4.50002 8.67329 4.7985 8.67329 5.16669C8.67329 5.53488 8.37482 5.83335 8.00663 5.83335H7.99996C7.63177 5.83335 7.33329 5.53488 7.33329 5.16669ZM7.99996 7.16669C8.36815 7.16669 8.66663 7.46516 8.66663 7.83335V11.8334C8.66663 12.2015 8.36815 12.5 7.99996 12.5C7.63177 12.5 7.33329 12.2015 7.33329 11.8334V7.83335C7.33329 7.46516 7.63177 7.16669 7.99996 7.16669Z" fill="#61646B"/>
</g>
</svg>
