<svg width="119" height="32" viewBox="0 0 119 32" fill="none" xmlns="http://www.w3.org/2000/svg">
<g id="OpenAI_Logo" clip-path="url(#clip0_213_3868)">
<path id="Vector" d="M37.4221 15.3844C37.4221 20.6164 40.7821 24.2644 45.4381 24.2644C50.0941 24.2644 53.4541 20.6164 53.4541 15.3844C53.4541 10.1524 50.0941 6.50439 45.4381 6.50439C40.7821 6.50439 37.4221 10.1524 37.4221 15.3844ZM50.3821 15.3844C50.3821 19.1284 48.3421 21.5524 45.4381 21.5524C42.5341 21.5524 40.4941 19.1284 40.4941 15.3844C40.4941 11.6404 42.5341 9.21639 45.4381 9.21639C48.3421 9.21639 50.3821 11.6404 50.3821 15.3844Z" fill="#10A37F"/>
<path id="Vector_2" d="M62.1097 24.2646C65.6377 24.2646 67.6537 21.2886 67.6537 17.7126C67.6537 14.1366 65.6377 11.1606 62.1097 11.1606C60.4777 11.1606 59.2777 11.8086 58.4857 12.7446V11.4006H55.6057V28.3206H58.4857V22.6806C59.2777 23.6166 60.4777 24.2646 62.1097 24.2646ZM58.4137 17.3526C58.4137 14.9766 59.7577 13.6806 61.5337 13.6806C63.6217 13.6806 64.7497 15.3126 64.7497 17.7126C64.7497 20.1126 63.6217 21.7446 61.5337 21.7446C59.7577 21.7446 58.4137 20.4246 58.4137 18.0966V17.3526Z" fill="#10A37F"/>
<path id="Vector_3" d="M75.4484 24.2646C77.9684 24.2646 79.9604 22.9446 80.8484 20.7366L78.3764 19.8006C77.9924 21.0966 76.8644 21.8166 75.4484 21.8166C73.6004 21.8166 72.3044 20.4966 72.0884 18.3366H80.9204V17.3766C80.9204 13.9206 78.9764 11.1606 75.3284 11.1606C71.6804 11.1606 69.3284 14.0166 69.3284 17.7126C69.3284 21.6006 71.8484 24.2646 75.4484 24.2646ZM75.3044 13.5846C77.1284 13.5846 77.9924 14.7846 78.0164 16.1766H72.2324C72.6644 14.4726 73.8164 13.5846 75.3044 13.5846Z" fill="#10A37F"/>
<path id="Vector_4" d="M83.0784 24.0006H85.9584V16.6086C85.9584 14.8086 87.2784 13.8486 88.5744 13.8486C90.1584 13.8486 90.7824 14.9766 90.7824 16.5366V24.0006H93.6624V15.6966C93.6624 12.9846 92.0784 11.1606 89.4384 11.1606C87.8064 11.1606 86.6784 11.9046 85.9584 12.7446V11.4006H83.0784V24.0006Z" fill="#10A37F"/>
<path id="Vector_5" d="M102.102 6.76807L95.5745 24.0001H98.6225L100.086 20.0641H107.526L109.014 24.0001H112.11L105.582 6.76807H102.102ZM103.782 10.1761L106.518 17.3761H101.094L103.782 10.1761Z" fill="#10A37F"/>
<path id="Vector_6" d="M117.053 6.81885H113.981V24.0508H117.053V6.81885Z" fill="#10A37F"/>
<path id="Vector_7" d="M30.3839 13.0976C31.1099 10.9186 30.8599 8.53164 29.6989 6.54964C27.9529 3.50964 24.4429 1.94564 21.0149 2.68164C19.4899 0.963637 17.2989 -0.0133633 15.0019 0.000636704C11.4979 -0.0073633 8.38889 2.24864 7.31089 5.58264C5.05989 6.04364 3.11689 7.45264 1.97989 9.44964C0.220889 12.4816 0.621889 16.3036 2.97189 18.9036C2.24589 21.0826 2.49589 23.4696 3.65689 25.4516C5.40289 28.4916 8.91289 30.0556 12.3409 29.3196C13.8649 31.0376 16.0569 32.0146 18.3539 31.9996C21.8599 32.0086 24.9699 29.7506 26.0479 26.4136C28.2989 25.9526 30.2419 24.5436 31.3789 22.5466C33.1359 19.5146 32.7339 15.6956 30.3849 13.0956L30.3839 13.0976ZM18.3559 29.9086C16.9529 29.9106 15.5939 29.4196 14.5169 28.5206C14.5659 28.4946 14.6509 28.4476 14.7059 28.4136L21.0779 24.7336C21.4039 24.5486 21.6039 24.2016 21.6019 23.8266V14.8436L24.2949 16.3986C24.3239 16.4126 24.3429 16.4406 24.3469 16.4726V23.9116C24.3429 27.2196 21.6639 29.9016 18.3559 29.9086ZM5.47189 24.4056C4.76889 23.1916 4.51589 21.7686 4.75689 20.3876C4.80389 20.4156 4.88689 20.4666 4.94589 20.5006L11.3179 24.1806C11.6409 24.3696 12.0409 24.3696 12.3649 24.1806L20.1439 19.6886V22.7986C20.1459 22.8306 20.1309 22.8616 20.1059 22.8816L13.6649 26.6006C10.7959 28.2526 7.13189 27.2706 5.47289 24.4056H5.47189ZM3.79489 10.4966C4.49489 9.28064 5.59989 8.35064 6.91589 7.86764C6.91589 7.92264 6.91289 8.01964 6.91289 8.08764V15.4486C6.91089 15.8226 7.11089 16.1696 7.43589 16.3546L15.2149 20.8456L12.5219 22.4006C12.4949 22.4186 12.4609 22.4216 12.4309 22.4086L5.98889 18.6866C3.12589 17.0286 2.14389 13.3656 3.79389 10.4976L3.79489 10.4966ZM25.9209 15.6456L18.1419 11.1536L20.8349 9.59964C20.8619 9.58164 20.8959 9.57864 20.9259 9.59164L27.3679 13.3106C30.2359 14.9676 31.2189 18.6366 29.5619 21.5046C28.8609 22.7186 27.7569 23.6486 26.4419 24.1326V16.5516C26.4449 16.1776 26.2459 15.8316 25.9219 15.6456H25.9209ZM28.6009 11.6116C28.5539 11.5826 28.4709 11.5326 28.4119 11.4986L22.0399 7.81864C21.7169 7.62964 21.3169 7.62964 20.9929 7.81864L13.2139 12.3106V9.20064C13.2119 9.16864 13.2269 9.13764 13.2519 9.11764L19.6929 5.40164C22.5619 3.74664 26.2299 4.73164 27.8839 7.60164C28.5829 8.81364 28.8359 10.2326 28.5989 11.6116H28.6009ZM11.7499 17.1546L9.05589 15.5996C9.02689 15.5856 9.00789 15.5576 9.00389 15.5256V8.08664C9.00589 4.77464 11.6929 2.09064 15.0049 2.09264C16.4059 2.09264 17.7619 2.58464 18.8389 3.48064C18.7899 3.50664 18.7059 3.55364 18.6499 3.58764L12.2779 7.26764C11.9519 7.45264 11.7519 7.79864 11.7539 8.17364L11.7499 17.1526V17.1546ZM13.2129 14.0006L16.6779 11.9996L20.1429 13.9996V18.0006L16.6779 20.0006L13.2129 18.0006V14.0006Z" fill="#10A37F"/>
</g>
<defs>
<clipPath id="clip0_213_3868">
<rect width="118" height="32" fill="white" transform="translate(0.683838 0.000488281)"/>
</clipPath>
</defs>
</svg>
